<svg width="24" height="24" viewBox="0 0 24 24" fill="none" xmlns="http://www.w3.org/2000/svg">
<path d="M2.93 21.975H4.395V23.44H2.93C1.31392 23.44 0 22.1261 0 20.51V2.93C0 1.31392 1.31392 0 2.93 0H10.0765C10.6579 0 11.2164 0.233484 11.6284 0.645516L16.9345 5.94698C17.3465 6.35902 17.58 6.91755 17.58 7.49897V13.185H16.115V8.79H10.9875C9.7743 8.79 8.79 7.8057 8.79 6.5925V1.465H2.93C2.11967 1.465 1.465 2.11967 1.465 2.93V20.51C1.465 21.3203 2.11967 21.975 2.93 21.975ZM16.0921 7.325C16.0601 7.19681 15.996 7.07778 15.8998 6.98622L10.5938 1.68017C10.4976 1.58403 10.3832 1.51994 10.255 1.48789V6.5925C10.255 6.99538 10.5846 7.325 10.9875 7.325H16.0921ZM8.0575 16.115H9.5225C10.7357 16.115 11.72 17.0993 11.72 18.3125V21.2425C11.72 22.4557 10.7357 23.44 9.5225 23.44H8.0575C7.65462 23.44 7.325 23.1104 7.325 22.7075V16.8475C7.325 16.4446 7.65462 16.115 8.0575 16.115ZM8.79 21.975H9.5225C9.92537 21.975 10.255 21.6454 10.255 21.2425V18.3125C10.255 17.9096 9.92537 17.58 9.5225 17.58H8.79V21.975ZM20.8763 16.115H21.6088C22.6205 16.115 23.44 16.9345 23.44 17.9463V18.3125C23.44 18.7154 23.1104 19.045 22.7075 19.045C22.3046 19.045 21.975 18.7154 21.975 18.3125V17.9463C21.975 17.7448 21.8102 17.58 21.6088 17.58H20.8763C20.6748 17.58 20.51 17.7448 20.51 17.9463V21.6088C20.51 21.8102 20.6748 21.975 20.8763 21.975H21.6088C21.8102 21.975 21.975 21.8102 21.975 21.6088V21.2425C21.975 20.8396 22.3046 20.51 22.7075 20.51C23.1104 20.51 23.44 20.8396 23.44 21.2425V21.6088C23.44 22.6205 22.6205 23.44 21.6088 23.44H20.8763C19.8645 23.44 19.045 22.6205 19.045 21.6088V17.9463C19.045 16.9345 19.8645 16.115 20.8763 16.115ZM13.185 17.9463C13.185 16.9345 14.0045 16.115 15.0163 16.115H15.7488C16.7605 16.115 17.58 16.9345 17.58 17.9463V21.6088C17.58 22.6205 16.7605 23.44 15.7488 23.44H15.0163C14.0045 23.44 13.185 22.6205 13.185 21.6088V17.9463ZM15.0163 17.58C14.8148 17.58 14.65 17.7448 14.65 17.9463V21.6088C14.65 21.8102 14.8148 21.975 15.0163 21.975H15.7488C15.9502 21.975 16.115 21.8102 16.115 21.6088V17.9463C16.115 17.7448 15.9502 17.58 15.7488 17.58H15.0163Z" fill="#F2F2F2"/>
<path d="M2.93 21.975H4.395V23.44H2.93C1.31392 23.44 0 22.1261 0 20.51V2.93C0 1.31392 1.31392 0 2.93 0H10.0765C10.6579 0 11.2164 0.233484 11.6284 0.645516L16.9345 5.94698C17.3465 6.35902 17.58 6.91755 17.58 7.49897V13.185H16.115V8.79H10.9875C9.7743 8.79 8.79 7.8057 8.79 6.5925V1.465H2.93C2.11967 1.465 1.465 2.11967 1.465 2.93V20.51C1.465 21.3203 2.11967 21.975 2.93 21.975ZM16.0921 7.325C16.0601 7.19681 15.996 7.07778 15.8998 6.98622L10.5938 1.68017C10.4976 1.58403 10.3832 1.51994 10.255 1.48789V6.5925C10.255 6.99538 10.5846 7.325 10.9875 7.325H16.0921ZM8.0575 16.115H9.5225C10.7357 16.115 11.72 17.0993 11.72 18.3125V21.2425C11.72 22.4557 10.7357 23.44 9.5225 23.44H8.0575C7.65462 23.44 7.325 23.1104 7.325 22.7075V16.8475C7.325 16.4446 7.65462 16.115 8.0575 16.115ZM8.79 21.975H9.5225C9.92537 21.975 10.255 21.6454 10.255 21.2425V18.3125C10.255 17.9096 9.92537 17.58 9.5225 17.58H8.79V21.975ZM20.8763 16.115H21.6088C22.6205 16.115 23.44 16.9345 23.44 17.9463V18.3125C23.44 18.7154 23.1104 19.045 22.7075 19.045C22.3046 19.045 21.975 18.7154 21.975 18.3125V17.9463C21.975 17.7448 21.8102 17.58 21.6088 17.58H20.8763C20.6748 17.58 20.51 17.7448 20.51 17.9463V21.6088C20.51 21.8102 20.6748 21.975 20.8763 21.975H21.6088C21.8102 21.975 21.975 21.8102 21.975 21.6088V21.2425C21.975 20.8396 22.3046 20.51 22.7075 20.51C23.1104 20.51 23.44 20.8396 23.44 21.2425V21.6088C23.44 22.6205 22.6205 23.44 21.6088 23.44H20.8763C19.8645 23.44 19.045 22.6205 19.045 21.6088V17.9463C19.045 16.9345 19.8645 16.115 20.8763 16.115ZM13.185 17.9463C13.185 16.9345 14.0045 16.115 15.0163 16.115H15.7488C16.7605 16.115 17.58 16.9345 17.58 17.9463V21.6088C17.58 22.6205 16.7605 23.44 15.7488 23.44H15.0163C14.0045 23.44 13.185 22.6205 13.185 21.6088V17.9463ZM15.0163 17.58C14.8148 17.58 14.65 17.7448 14.65 17.9463V21.6088C14.65 21.8102 14.8148 21.975 15.0163 21.975H15.7488C15.9502 21.975 16.115 21.8102 16.115 21.6088V17.9463C16.115 17.7448 15.9502 17.58 15.7488 17.58H15.0163Z" fill="url(#paint0_linear_170_3866)"/>
<defs>
<linearGradient id="paint0_linear_170_3866" x1="20.9286" y1="27.3467" x2="7.28807" y2="4.61249" gradientUnits="userSpaceOnUse">
<stop stop-color="white" stop-opacity="0"/>
<stop offset="1" stop-color="#00A99D"/>
</linearGradient>
</defs>
</svg>
