<svg width="16" height="18" viewBox="0 0 16 18" fill="none" xmlns="http://www.w3.org/2000/svg">
<path d="M16.0002 7.37965C14.4279 7.38335 12.8941 6.90066 11.6156 5.99977V12.2829C11.6152 13.4466 11.2538 14.5824 10.5799 15.5385C9.90599 16.4946 8.95161 17.2254 7.84438 17.6332C6.73715 18.0409 5.52985 18.1062 4.38391 17.8203C3.23797 17.5344 2.20802 16.9109 1.43177 16.0332C0.655517 15.1555 0.16997 14.0655 0.0400515 12.9088C-0.0898669 11.7522 0.142036 10.584 0.704752 9.56062C1.26747 8.53721 2.13417 7.70729 3.18898 7.18185C4.24378 6.65641 5.43641 6.46048 6.60739 6.62027V9.78047C6.07155 9.61456 5.49615 9.61955 4.96337 9.79475C4.43058 9.96994 3.96766 10.3064 3.6407 10.756C3.31375 11.2056 3.13948 11.7455 3.14279 12.2984C3.1461 12.8513 3.32681 13.3891 3.65913 13.8349C3.99144 14.2807 4.45836 14.6118 4.9932 14.7808C5.52804 14.9498 6.10346 14.9481 6.63728 14.776C7.1711 14.6039 7.63602 14.2701 7.96565 13.8224C8.29528 13.3747 8.47276 12.8358 8.47274 12.2829V0H11.6156C11.6134 0.26126 11.6357 0.522164 11.682 0.779414C11.7912 1.35368 12.0183 1.89999 12.3494 2.38491C12.6804 2.86983 13.1085 3.28317 13.6074 3.59965C14.3172 4.06163 15.1493 4.30787 16.0002 4.3077V7.37965Z" fill="#989898"/>
</svg>
