<svg width="21" height="15" viewBox="0 0 21 15" fill="none" xmlns="http://www.w3.org/2000/svg">
<path d="M20.2 2.25964C19.9623 1.37605 19.2657 0.679527 18.3822 0.441605C16.7683 0 10.3122 0 10.3122 0C10.3122 0 3.85649 0 2.24252 0.424862C1.37605 0.662533 0.662407 1.37617 0.424736 2.25964C0 3.87348 0 7.22039 0 7.22039C0 7.22039 0 10.5842 0.424736 12.1811C0.662659 13.0646 1.35905 13.7611 2.24264 13.999C3.87348 14.4408 10.3125 14.4408 10.3125 14.4408C10.3125 14.4408 16.7683 14.4408 18.3822 14.0159C19.2658 13.7781 19.9623 13.0816 20.2003 12.1981C20.6249 10.5842 20.6249 7.23738 20.6249 7.23738C20.6249 7.23738 20.6419 3.87348 20.2 2.25964ZM8.2568 10.3124V4.1284L13.6253 7.22039L8.2568 10.3124Z" fill="#989898"/>
</svg>
