<svg width="108" height="34" viewBox="0 0 108 34" fill="none" xmlns="http://www.w3.org/2000/svg">
<path fill-rule="evenodd" clip-rule="evenodd" d="M45.8646 10.9609C45.9237 5.66848 48.6767 4.01199 50.1761 4.01199C52.2701 4.01199 53.1347 5.61109 53.2761 6.31913C53.4175 7.02653 54.2098 7.59242 54.4645 6.43209C54.7193 5.27176 57.1827 1.73327 60.2099 1.73327C62.9826 1.73306 63.9428 4.59376 63.8596 7.02674C63.7163 11.2163 60.2508 14.8708 57.4394 17.8357C55.8062 19.5579 54.3937 21.0475 53.9812 22.2741C53.6774 21.6596 52.8019 20.9619 51.7324 20.1095C49.283 18.1575 45.8156 15.3942 45.8646 10.9609ZM61.2003 0.0917969C58.7105 0.0917969 55.7657 1.93153 53.9836 4.98876C53.5026 3.88454 51.789 2.68151 49.7522 2.68151C48.1109 2.68151 43.5038 4.73365 43.5038 11.3573C43.5038 17.3452 47.7457 20.0002 50.8874 21.9665C52.2307 22.8073 53.3729 23.5222 53.8964 24.3179C54.0163 24.5006 54.4033 24.6385 54.5507 24.202C55.0663 22.6798 56.8694 21.0845 58.9375 19.2547C62.4629 16.1357 66.7582 12.3354 66.7582 7.05485C66.7582 2.35614 63.6902 0.0917969 61.2003 0.0917969ZM10.8465 2.70765C5.90799 2.34976 0.450132 6.4416 0.658865 11.7411C0.678896 12.2499 1.10902 12.716 1.72646 12.716C2.49027 12.716 4.72743 12.6313 4.72743 12.6313C4.72743 12.6313 0.313477 16.1126 0.313477 20.1885C0.313477 22.3394 1.92631 24.9157 5.29324 24.9157C10.012 24.9155 13.5293 21.0506 13.5227 17.7765C13.5223 17.5272 13.2364 17.1756 12.7753 17.7346C12.0441 18.6216 8.12226 22.651 4.24617 22.651C2.94479 22.6508 1.8132 21.9148 1.8132 20.3584C1.8132 18.3203 5.03874 14.3575 10.584 12.8006C11.9422 12.4047 12.0552 10.508 10.3294 10.4233C9.1221 10.3639 5.80733 10.6756 3.84314 10.8603L3.84302 10.8603C3.04719 10.9352 2.4731 10.9892 2.35078 10.9892C1.92631 10.9892 1.88805 10.8975 2.03945 10.508C2.23763 9.99844 4.38774 6.23391 10.8387 5.5263C13.0174 5.35626 12.7987 2.84947 10.8465 2.70765ZM89.0455 17.2064C88.9455 18.9385 89.7636 20.6333 91.195 20.7059C92.6254 20.7782 93.9649 19.018 94.0598 16.8163C94.1571 14.5621 92.3664 11.6165 91.771 11.073C91.771 11.073 89.2211 14.1539 89.0455 17.2064ZM93.0797 9.84968C93.0217 9.91661 92.9613 9.98621 92.8989 10.0589C96.3088 14.5332 96.6569 18.7632 94.7063 21.0643C92.5033 23.6629 88.3015 23.2067 86.9085 19.5091C85.4836 15.7264 87.2549 10.8787 89.8724 9.03715C89.5517 8.57757 89.098 6.51685 91.314 8.27601C92.0631 7.58427 93.7466 7.92918 93.8414 8.42641C93.9268 8.87327 93.5946 9.25618 93.0797 9.84968ZM28.9772 31.0349V31.0508C28.9771 32.0031 28.2948 32.7808 27.3111 32.781C26.3276 32.781 25.6295 31.9872 25.6295 31.0349V31.019C25.6295 30.0669 26.3117 29.2889 27.2953 29.2889C28.279 29.2889 28.9772 30.0828 28.9772 31.0349ZM24.3525 31.0349V31.0508C24.3525 32.63 25.582 33.9075 27.2953 33.9075C29.0086 33.9075 30.2542 32.6141 30.2542 31.0349V31.019C30.2542 29.4401 29.0248 28.162 27.3111 28.162C25.5978 28.162 24.3525 29.4556 24.3525 31.0349ZM19.4813 32.138L18.7593 33.0033C19.4257 33.5979 20.2743 33.8916 21.115 33.8916C22.313 33.8916 23.1538 33.2729 23.1538 32.1698V32.1537C23.1538 31.1856 22.5194 30.7809 21.3928 30.4874C20.4328 30.2413 20.195 30.1221 20.195 29.7573V29.7414C20.195 29.4716 20.4409 29.2573 20.9089 29.2573C21.3768 29.2573 21.8607 29.4634 22.3526 29.8051L22.9872 28.8844C22.424 28.432 21.734 28.178 20.9249 28.178C19.7906 28.178 18.9813 28.8449 18.9813 29.8524V29.868C18.9813 30.9715 19.7031 31.2811 20.8216 31.5666C21.7499 31.8048 21.9404 31.9633 21.9404 32.2728V32.2888C21.9404 32.6141 21.6387 32.8125 21.1388 32.8125C20.5043 32.8125 19.9806 32.5509 19.4813 32.138ZM31.6591 28.2573H32.7855L35.3875 31.6778V28.2573H36.593V33.8122H35.554L32.865 30.2811V33.8122H31.6591V28.2573ZM38.1489 31.0349V31.0508C38.1489 32.6935 39.3386 33.9075 41.0681 33.9075C42.0832 33.9075 42.8686 33.5108 43.4398 33.0269V30.6141H41.0284V31.6695H42.2578V32.4635C41.9484 32.6855 41.5521 32.7968 41.1077 32.7968C40.1242 32.7968 39.4257 32.0507 39.4257 31.0349V31.019C39.4257 30.0746 40.1321 29.2889 41.0205 29.2889C41.6628 29.2889 42.0436 29.4955 42.472 29.8524L43.2414 28.9236C42.6624 28.432 42.0594 28.162 41.0603 28.162C39.3784 28.162 38.1489 29.4556 38.1489 31.0349ZM47.7009 31.0508V31.0349C47.7009 29.4556 48.8906 28.162 50.5962 28.162C51.6427 28.162 52.2699 28.5113 52.7858 29.0194L52.0079 29.916C51.5794 29.527 51.1431 29.2889 50.5882 29.2889C49.6521 29.2889 48.9778 30.0669 48.9778 31.019V31.0349C48.9778 31.9872 49.6363 32.781 50.5882 32.781C51.2225 32.7808 51.611 32.5269 52.0474 32.1302L52.8251 32.9159C52.2537 33.5267 51.619 33.9075 50.5486 33.9075C48.9145 33.9075 47.7009 32.6457 47.7009 31.0508ZM58.498 31.0349V31.0508C58.498 32.0031 57.8157 32.7808 56.8322 32.781C55.8484 32.781 55.1502 31.9872 55.1502 31.0349V31.019C55.1502 30.0669 55.8322 29.2889 56.8163 29.2889C57.7995 29.2889 58.498 30.0828 58.498 31.0349ZM53.8733 31.0349V31.0508C53.8733 32.63 55.1029 33.9075 56.8163 33.9075C58.5295 33.9075 59.7749 32.6141 59.7749 31.0349L59.7748 31.019C59.7748 29.4401 58.5456 28.162 56.8322 28.162C55.1184 28.162 53.8733 29.4556 53.8733 31.0349ZM61.1801 28.2573H62.3064L64.9084 31.6778V28.2573H66.1143V33.8122H65.0747L62.3858 30.2811V33.8122H61.1801V28.2573ZM67.4078 29.3842H69.0975V33.8122H70.319V29.3842H72.0086V28.2573H67.4078V29.3842ZM73.4215 28.2573H77.6096V29.3444H74.6354V30.4711H77.2529V31.5586H74.6354V32.7253H77.6496V33.8122H73.4215V28.2573ZM79.5462 32.138L78.8245 33.0033C79.4909 33.5979 80.3398 33.8916 81.1801 33.8916C82.3782 33.8916 83.219 33.2729 83.219 32.1698L83.2189 32.1537C83.2189 31.1856 82.5845 30.7809 81.4578 30.4874C80.498 30.2413 80.2602 30.1221 80.2602 29.7573V29.7414C80.2602 29.4716 80.5064 29.2573 80.9741 29.2573C81.442 29.2573 81.9261 29.4634 82.4179 29.8051L83.0525 28.8844C82.4893 28.432 81.7989 28.178 80.9901 28.178C79.8555 28.178 79.0467 28.8449 79.0467 29.8524L79.0465 29.868C79.0465 30.9715 79.7683 31.2811 80.8869 31.5666C81.815 31.8048 82.0054 31.9633 82.0054 32.2728V32.2888C82.0054 32.6141 81.7036 32.8125 81.2043 32.8125C80.5696 32.8125 80.0458 32.5509 79.5462 32.138ZM85.9249 29.3842H84.2354V28.2573H88.8361V29.3842H87.1461V33.8122H85.9249V29.3842ZM15.2125 8.64376C15.9286 6.83117 17.8286 7.61731 17.8286 8.89736C17.8286 9.64432 17.5739 10.7872 17.2876 12.0717C16.862 13.9813 16.3666 16.2039 16.5348 17.9034C16.631 18.8753 17.2943 19.9011 18.1943 18.9164C20.473 16.2707 20.2482 8.98158 20.1919 8.19404C20.1355 7.40576 20.5576 7.18047 20.8671 7.60283C21.1766 8.02454 22.6393 10.3607 22.6393 13.9349C22.6393 18.2689 20.0544 22.7091 18.029 22.7092C13.4153 22.7092 13.834 12.1338 15.2125 8.64376ZM38.9137 20.2566C37.6182 20.2566 36.8982 18.5826 36.8982 16.7645C36.8982 13.5605 39.2013 10.6457 39.2013 10.6457C39.8346 11.4536 41.3604 13.7336 41.3604 16.0426C41.3604 18.3518 40.2084 20.2566 38.9137 20.2566ZM39.9499 9.63542C39.9499 9.63542 40.6817 8.64062 40.2414 8.07923C39.7462 7.44661 38.1591 7.24943 36.6722 8.9159C34.7146 11.1093 33.3431 15.7382 34.8257 19.6216C36.2431 23.3347 40.2119 23.6484 42.051 20.8342C43.6918 18.3227 43.2602 14.1377 39.9499 9.63542ZM27.1576 10.4798C27.1576 10.4798 27.0444 11.9801 26.9312 13.4236C28.3572 13.4494 31.0056 12.8302 32.1574 11.0413C32.6465 10.2816 32.447 9.87071 31.4864 9.77234C30.3834 9.65862 27.1578 10.4796 27.1576 10.4798ZM32.4894 20.8245L32.4894 20.8246L32.4895 20.8248L32.4896 20.8248L32.4896 20.8249C32.9876 21.6612 33.4375 22.4168 33.8551 22.9966C34.1931 23.4657 33.7189 23.73 33.259 23.5675L33.1975 23.5459C32.3727 23.2568 31.6723 23.0114 29.6475 20.415C29.322 19.9975 29.0099 19.5939 28.7171 19.2152C27.7378 17.9485 26.9751 16.9619 26.6483 16.6791C26.2805 20.8113 25.4924 21.9058 25.1244 22.3583C24.7096 22.8702 24.4177 22.7866 24.3606 22.3019C24.3041 21.8205 24.5547 16.2824 24.6962 15.0374C24.4586 14.7402 24.2367 14.5521 24.0712 14.4118L24.0712 14.4118L24.0712 14.4118C23.9213 14.2848 23.8177 14.1969 23.7906 14.1029C23.734 13.9046 23.9186 13.7345 24.8378 13.8482C24.9509 12.8006 25.3754 10.8197 25.3754 10.8197C24.2434 11.2722 23.3378 9.6023 24.5547 8.89469C25.4884 8.32879 27.9538 7.57387 30.189 7.57387C32.4239 7.57387 34.146 8.76735 34.146 10.4233C34.146 12.6595 30.7792 14.7538 28.0912 14.9239C29.9398 16.5429 31.342 18.8977 32.4894 20.8245ZM66.9752 13.2809C67.6323 11.3188 68.2718 9.40904 68.2337 7.94116C68.2231 7.55678 68.5235 7.51086 68.901 7.63305C69.7467 7.90715 70.4815 9.35724 70.2769 11.7269C70.0603 14.2367 68.8869 17.1434 67.987 19.3728C67.5007 20.5775 67.0942 21.5844 66.9616 22.2241C66.8348 22.8344 66.36 22.8054 66.1433 22.4698C65.936 22.1492 65.4999 21.1645 65.6185 18.7306C65.6977 17.0955 66.3445 15.1641 66.9752 13.2809ZM77.6633 7.57386C74.1257 7.57386 71.5743 8.8287 71.5743 11.6779C71.5744 13.4331 72.8757 14.6405 74.9506 14.9804C75.4774 15.0792 75.998 15.1517 76.4531 15.2151C77.0411 15.2971 77.5197 15.3638 77.761 15.4521C78.323 15.6573 77.5006 16.1836 75.9046 17.2051L75.9045 17.2051L75.9043 17.2053L75.9042 17.2054C75.3017 17.591 74.5889 18.0472 73.7988 18.5833C71.8288 19.92 70.3899 21.3322 69.621 22.8317C69.3547 23.3508 69.7151 23.8465 70.272 23.463C71.1006 22.8921 72.6859 22.0296 74.4163 21.0882L74.4165 21.0881L74.4177 21.0874L74.4202 21.086C74.9464 20.7998 75.486 20.5062 76.0217 20.2113C78.2095 19.007 80.2704 17.6837 80.2704 16.0372C80.2704 14.5461 79.1519 13.9841 78.2895 13.8857C78.0524 13.8588 77.7714 13.8395 77.4664 13.8185C75.8545 13.7077 73.5737 13.551 73.5737 11.9801C73.5739 11.2818 74.4979 10.3664 77.4688 10.3664C79.7608 10.3664 79.5296 7.57386 77.6633 7.57386ZM81.7975 15.2658C82.2908 12.6546 82.8771 9.55136 82.1179 8.09333C81.8542 7.63589 82.5435 7.54159 83.0646 7.58558C84.0053 7.66518 85.6109 8.92549 85.4316 12.1783C85.3545 13.5824 84.6625 15.8758 84.0237 17.9928C83.5007 19.7261 83.0134 21.3411 82.9285 22.2527C82.8909 22.6646 82.4828 22.8933 82.172 22.5118C81.5641 21.7672 81.3058 20.9575 81.3056 18.6602C81.3056 17.8698 81.5388 16.6355 81.7975 15.2658ZM82.9143 4.95677C82.8551 7.07499 86.3867 7.41689 86.3867 4.82718C86.3867 2.57046 84.4993 0.703692 84.1203 0.393012C83.5311 -0.0875979 82.6979 -0.000809781 82.8941 0.775998C83.2369 2.01103 83.0829 3.3523 82.9797 4.25097C82.9468 4.53696 82.9192 4.77812 82.9143 4.95677ZM107.138 16.4327C106.992 18.6033 106.851 20.7063 107.14 22.4891C107.207 22.8979 106.735 23.018 106.431 22.7555C104.486 21.0764 104.375 16.7006 104.309 14.1087C104.298 13.6921 104.289 13.3215 104.273 13.0156C104.161 10.8456 101.437 11.0125 100.769 11.9212C100.636 12.6891 100.527 13.626 100.41 14.6377C100.102 17.2913 99.734 20.4599 98.7139 22.4473C98.5098 22.8182 97.991 22.7551 97.9379 22.3326C97.9264 22.2393 97.8944 22.1144 97.8509 21.9449C97.687 21.3065 97.3608 20.0357 97.3607 17.4415C97.3607 14.159 97.7435 9.42318 100.395 7.77269C100.877 7.51276 101.21 7.51308 101.229 7.79125C101.238 7.92935 101.214 8.23768 101.188 8.57015C101.168 8.82318 101.148 9.09018 101.139 9.30678C101.139 9.30678 102.141 8.54607 103.828 8.54607C105.126 8.54607 107.313 9.89993 107.313 12.5335C107.313 13.8216 107.225 15.1392 107.138 16.4327Z" fill="black"/>
</svg>
