<svg width="135" height="20" viewBox="0 0 135 20" fill="none" xmlns="http://www.w3.org/2000/svg">
<path fill-rule="evenodd" clip-rule="evenodd" d="M53.9993 19.896L54.0453 19.8935C54.0338 19.853 54.0238 19.8154 54.0144 19.7798L54.0143 19.7795L54.0143 19.7794L54.0143 19.7792C53.9951 19.707 53.9783 19.6433 53.9555 19.5815C51.6005 13.1898 49.2521 6.79818 46.9105 0.406536C46.812 0.138086 46.683 0.0683594 46.4102 0.0683594C44.0172 0.0787095 41.6292 0.0786807 39.2401 0.078652C38.6113 0.0786444 37.9825 0.0786369 37.3535 0.0788184C37.2784 0.0788184 37.2036 0.0848142 37.1215 0.0914021C37.0865 0.0942123 37.0502 0.0971303 37.0119 0.0997366C37.0209 0.133625 37.0279 0.162634 37.0341 0.188306L37.0342 0.188522C37.0453 0.234713 37.0539 0.270099 37.0668 0.303688C39.4386 6.73252 41.8027 13.1634 44.1589 19.5963C44.2635 19.8804 44.409 19.917 44.6705 19.917C47.6757 19.9136 50.6804 19.9118 53.6845 19.9118C53.7567 19.9118 53.8286 19.9071 53.9079 19.9018L53.9475 19.8992L53.9993 19.896ZM87.7645 19.9118V0.104094H105.371L105.034 1.0247C104.78 1.71709 104.529 2.40383 104.277 3.09016C102.262 8.56722 100.246 14.0437 98.2296 19.5196C98.2198 19.5462 98.2111 19.5731 98.2024 19.5998C98.1486 19.7655 98.098 19.9213 97.8217 19.9205C95.1549 19.9101 92.4892 19.9108 89.7975 19.9115H89.7967H89.796H89.7953C89.1201 19.9116 88.4433 19.9118 87.7645 19.9118ZM0.975156 0.403049C2.48591 1.90218 3.99841 3.4016 5.51265 4.90132C10.3674 9.74154 15.2218 14.5832 20.076 19.4263C20.1462 19.4965 20.2118 19.5704 20.2775 19.6444L20.2775 19.6444L20.2775 19.6444L20.2776 19.6445L20.2776 19.6445L20.2777 19.6446L20.2777 19.6446L20.2777 19.6446L20.2778 19.6447L20.2778 19.6447L20.2779 19.6448L20.278 19.645L20.2782 19.6452C20.3077 19.6784 20.3372 19.7116 20.3671 19.7445V19.7503L20.4656 19.8813L20.3671 19.898V19.8987C20.1568 19.8987 19.9464 19.902 19.7358 19.9053H19.7357H19.7356H19.7354H19.7353H19.7352H19.7351H19.735H19.7348H19.7347H19.7346C19.539 19.9083 19.3431 19.9114 19.1469 19.9118L0.679688 19.9214V19.7471V0.155518L0.975156 0.403049ZM79.5798 0.306364L79.5786 0.31017L79.5785 0.310245L79.5784 0.310507C79.5152 0.500811 79.4571 0.675532 79.3946 0.847559C77.104 7.07361 74.8132 13.2988 72.5221 19.5231L72.5107 19.5543C72.4364 19.7575 72.3755 19.9239 72.0637 19.9223C69.7459 19.9099 67.4281 19.9107 65.11 19.9115H65.1099H65.1099H65.1098H65.1097H65.1097H65.1096H65.1095C64.3367 19.9118 63.5638 19.912 62.7908 19.9118C62.7633 19.9118 62.735 19.9078 62.6951 19.9022C62.6731 19.8991 62.6475 19.8955 62.6165 19.8918C62.6391 19.7843 62.6682 19.6784 62.7037 19.5745C65.043 13.2125 67.3806 6.8499 69.7165 0.486722C69.8272 0.18951 69.9518 0.0683594 70.2943 0.0683594C72.5891 0.0811345 74.8845 0.0799049 77.1795 0.0786754C77.8595 0.0783111 78.5395 0.0779468 79.2194 0.0779468H79.6561C79.6317 0.150351 79.6085 0.220168 79.5859 0.287969L79.5822 0.299021L79.5812 0.302211L79.5798 0.306364ZM124.05 0.0901491H114.201C114.185 0.143758 114.174 0.198566 114.167 0.254008C114.168 1.42386 114.162 2.59386 114.156 3.76389C114.141 6.43815 114.127 9.11248 114.194 11.7851C114.31 16.4141 118.376 20.4984 124.05 19.8665V0.0901491ZM134.998 0.0979934V2.5245C134.998 3.50619 134.998 4.48789 134.999 5.46959V5.48878C135 7.44578 135.001 9.40278 134.998 11.3598C134.987 16.1239 131.214 19.897 126.456 19.9118H125.122V0.0979934H134.998ZM36.3277 1.06197L29.4526 19.8909L43.2585 19.8883C41.9815 16.4204 40.7085 12.9622 39.4299 9.48874C38.4011 6.69404 37.3687 3.88944 36.3277 1.06197ZM20.5406 0.20607V18.3717L11.6077 9.18692L20.4491 0.143316L20.5406 0.20607ZM59.1999 0.108452L64.0546 12.831L64.1531 12.8397C65.7115 8.60208 67.2711 4.35832 68.8318 0.108452H59.1999ZM107.013 19.897H99.1204L99.641 18.4788C100.788 15.3545 101.928 12.2502 103.068 9.14595L103.163 9.11893L107.013 19.897Z" fill="black"/>
</svg>
