<svg width="65" height="64" viewBox="0 0 65 64" fill="none" xmlns="http://www.w3.org/2000/svg">
<g clip-path="url(#clip0_67_391)">
<path d="M64.9473 0H0.947266V64H64.9473V0Z" fill="black"/>
<path d="M23.0362 41.4888C24.1146 40.4859 24.3002 39.2463 24.3002 38.1327V33.4587H18.4378V39.7999C18.4378 40.7099 17.778 41.4447 16.9639 41.4447C16.1505 41.4447 15.5438 40.7099 15.5438 39.7999V21.8319C15.5438 20.925 16.1498 20.189 16.9639 20.189C17.778 20.189 18.4378 20.925 18.4378 21.8319V28.2165H24.2919V21.5931C24.2919 17.9343 22.1441 14.9231 16.9146 14.916C11.5438 14.916 9.51367 17.9413 9.51367 21.6002V40.3631C9.51367 43.9887 12.0999 46.7323 15.4068 46.7323H17.2225L23.0362 41.4888Z" fill="white"/>
<path d="M46.1462 42.2253V21.6052H42.1001V15.5322H56.7414V21.6052H52.6761V46.6957H50.9404L46.1462 42.2253Z" fill="white"/>
<path d="M48.7694 46.7415L34.5109 33.4365L19.7358 46.7415H48.7694Z" fill="white"/>
<path d="M32.9336 29.8508L34.5119 20.8672L36.0818 29.8508H32.9336ZM38.5778 15.5635H30.4107L25.6523 39.3382L34.5138 31.3728L43.7515 39.9942L38.5778 15.5635Z" fill="white"/>
</g>
<defs>
<clipPath id="clip0_67_391">
<rect width="64" height="64" fill="white" transform="translate(0.947266)"/>
</clipPath>
</defs>
</svg>
