<svg width="632" height="914" viewBox="0 0 632 914" fill="none" xmlns="http://www.w3.org/2000/svg">
<path d="M437.454 -38.4565L436.637 130.821V130.823C436.637 196.16 407.364 257.496 358.39 300.793C318.364 336.164 294.094 388.924 297.38 447.204L297.38 447.205C302.532 537.576 375.115 611.304 465.475 617.647C571.737 625.184 660.227 541.232 660.227 436.683C660.227 382.506 636.405 333.776 598.62 300.569C549.648 257.496 520.671 196.087 520.671 130.898V130.895L519.855 -38.1563C763.451 -16.6376 954.5 187.606 954.5 436.609C954.5 699.849 740.922 913.281 477.5 913.281C214.078 913.281 0.5 699.849 0.5 436.609C0.5 186.787 192.815 -17.9777 437.454 -38.4565Z" stroke="#F2F2F2"/>
</svg>
