<svg width="21" height="21" viewBox="0 0 21 21" fill="none" xmlns="http://www.w3.org/2000/svg">
<path fill-rule="evenodd" clip-rule="evenodd" d="M20.9426 6.17406C20.8934 5.05825 20.7129 4.29114 20.4544 3.62643C20.1878 2.92085 19.7776 2.28915 19.2401 1.76402C18.7149 1.23071 18.0791 0.816306 17.3817 0.553819C16.7131 0.295338 15.95 0.114898 14.8342 0.0657019C13.7101 0.0123391 13.3532 0 10.502 0C7.65091 0 7.29403 0.0123391 6.17406 0.0615355C5.05824 0.110732 4.29114 0.291332 3.62658 0.549653C2.92085 0.816306 2.28915 1.22654 1.76402 1.76402C1.23071 2.28915 0.816466 2.92502 0.553819 3.62242C0.295338 4.29114 0.114898 5.05408 0.0657019 6.16989C0.0123391 7.29403 0 7.65091 0 10.5021C0 13.3532 0.0123391 13.7101 0.0615354 14.83C0.110732 15.9459 0.291332 16.713 0.549813 17.3777C0.816466 18.0833 1.23071 18.715 1.76402 19.2401C2.28915 19.7734 2.92502 20.1878 3.62242 20.4503C4.29114 20.7088 5.05408 20.8892 6.17005 20.9384C7.28987 20.9878 7.6469 20.9999 10.498 20.9999C13.3492 20.9999 13.7061 20.9878 14.826 20.9384C15.9418 20.8892 16.709 20.7088 17.3735 20.4503C18.7848 19.9046 19.9006 18.7888 20.4463 17.3777C20.7046 16.709 20.8852 15.9459 20.9344 14.83C20.9836 13.7101 20.9959 13.3532 20.9959 10.5021C20.9959 7.65091 20.9918 7.29403 20.9426 6.17406ZM19.0515 14.748C19.0063 15.7736 18.834 16.3274 18.6904 16.6966C18.3376 17.6115 17.6115 18.3376 16.6966 18.6904C16.3274 18.834 15.7696 19.0063 14.748 19.0513C13.6404 19.1007 13.3082 19.1128 10.5062 19.1128C7.70427 19.1128 7.36791 19.1007 6.26428 19.0513C5.23868 19.0063 4.68487 18.834 4.31565 18.6904C3.86039 18.5222 3.44598 18.2555 3.10962 17.9068C2.76092 17.5663 2.49427 17.1561 2.32601 16.7008C2.18242 16.3316 2.01016 15.7736 1.96513 14.7522C1.91577 13.6445 1.90359 13.3122 1.90359 10.5102C1.90359 7.70828 1.91577 7.37192 1.96513 6.26844C2.01016 5.24285 2.18242 4.68903 2.32601 4.31982C2.49427 3.86439 2.76092 3.45015 3.11379 3.11363C3.45416 2.76493 3.86439 2.49828 4.31982 2.33017C4.68903 2.18659 5.24702 2.01432 6.26844 1.96913C7.37608 1.91994 7.70844 1.9076 10.5102 1.9076C13.3163 1.9076 13.6485 1.91994 14.7522 1.96913C15.7778 2.01432 16.3316 2.18659 16.7008 2.33017C17.156 2.49828 17.5704 2.76493 17.9068 3.11363C18.2555 3.45416 18.5222 3.86439 18.6904 4.31982C18.834 4.68903 19.0063 5.24686 19.0515 6.26844C19.1007 7.37608 19.113 7.70828 19.113 10.5102C19.113 13.3122 19.1007 13.6404 19.0515 14.748ZM10.504 5.10938C7.52576 5.10938 5.10938 7.5256 5.10938 10.504C5.10938 13.4824 7.52576 15.8986 10.504 15.8986C13.4824 15.8986 15.8986 13.4824 15.8986 10.504C15.8986 7.5256 13.4824 5.10938 10.504 5.10938ZM10.504 14.0033C8.57187 14.0033 7.00463 12.4363 7.00463 10.504C7.00463 8.5717 8.57187 7.00463 10.504 7.00463C12.4363 7.00463 14.0033 8.5717 14.0033 10.504C14.0033 12.4363 12.4363 14.0033 10.504 14.0033ZM16.111 6.1516C16.8066 6.1516 17.3705 5.58769 17.3705 4.89221C17.3705 4.19657 16.8066 3.63281 16.111 3.63281C15.4155 3.63281 14.8516 4.19657 14.8516 4.89221C14.8516 5.58769 15.4155 6.1516 16.111 6.1516Z" fill="#989898"/>
</svg>
