<svg width="23" height="24" viewBox="0 0 23 24" fill="none" xmlns="http://www.w3.org/2000/svg">
<path d="M3.44758 22.4727H5.56452V23.9375H3.44758C1.89075 23.9375 0.625 22.6237 0.625 21.0078V3.42969C0.625 1.81378 1.89075 0.5 3.44758 0.5H10.332C10.8921 0.5 11.4302 0.733459 11.8271 1.14545L16.9386 6.44635C17.3356 6.85834 17.5605 7.41681 17.5605 7.99817V14.416H16.1492V9.28906H11.2097C10.041 9.28906 9.09274 8.30487 9.09274 7.0918V1.96484H3.44758C2.66696 1.96484 2.03629 2.61945 2.03629 3.42969V21.0078C2.03629 21.8181 2.66696 22.4727 3.44758 22.4727ZM16.1271 7.82422C16.0963 7.69604 16.0345 7.57703 15.9419 7.48547L10.8304 2.17999C10.7378 2.08386 10.6275 2.01978 10.504 1.98773V7.0918C10.504 7.49463 10.8216 7.82422 11.2097 7.82422H16.1271ZM8.3871 16.6133H9.79839C11.1612 16.6133 12.2681 17.7623 12.2681 19.1768C12.2681 20.5912 11.1612 21.7402 9.79839 21.7402H9.09274V23.2051C9.09274 23.6079 8.7752 23.9375 8.3871 23.9375C7.99899 23.9375 7.68145 23.6079 7.68145 23.2051V21.0078V17.3457C7.68145 16.9429 7.99899 16.6133 8.3871 16.6133ZM9.79839 20.2754C10.385 20.2754 10.8569 19.7856 10.8569 19.1768C10.8569 18.5679 10.385 18.0781 9.79839 18.0781H9.09274V20.2754H9.79839ZM14.0323 16.6133H15.4435C16.6123 16.6133 17.5605 17.5975 17.5605 18.8105V21.7402C17.5605 22.9533 16.6123 23.9375 15.4435 23.9375H14.0323C13.6442 23.9375 13.3266 23.6079 13.3266 23.2051V17.3457C13.3266 16.9429 13.6442 16.6133 14.0323 16.6133ZM15.4435 22.4727C15.8317 22.4727 16.1492 22.1431 16.1492 21.7402V18.8105C16.1492 18.4077 15.8317 18.0781 15.4435 18.0781H14.7379V22.4727H15.4435ZM18.9718 17.3457C18.9718 16.9429 19.2893 16.6133 19.6774 16.6133H21.7944C22.1825 16.6133 22.5 16.9429 22.5 17.3457C22.5 17.7485 22.1825 18.0781 21.7944 18.0781H20.3831V19.543H21.7944C22.1825 19.543 22.5 19.8726 22.5 20.2754C22.5 20.6782 22.1825 21.0078 21.7944 21.0078H20.3831V23.2051C20.3831 23.6079 20.0655 23.9375 19.6774 23.9375C19.2893 23.9375 18.9718 23.6079 18.9718 23.2051V20.2754V17.3457Z" fill="#F2F2F2"/>
<path d="M3.44758 22.4727H5.56452V23.9375H3.44758C1.89075 23.9375 0.625 22.6237 0.625 21.0078V3.42969C0.625 1.81378 1.89075 0.5 3.44758 0.5H10.332C10.8921 0.5 11.4302 0.733459 11.8271 1.14545L16.9386 6.44635C17.3356 6.85834 17.5605 7.41681 17.5605 7.99817V14.416H16.1492V9.28906H11.2097C10.041 9.28906 9.09274 8.30487 9.09274 7.0918V1.96484H3.44758C2.66696 1.96484 2.03629 2.61945 2.03629 3.42969V21.0078C2.03629 21.8181 2.66696 22.4727 3.44758 22.4727ZM16.1271 7.82422C16.0963 7.69604 16.0345 7.57703 15.9419 7.48547L10.8304 2.17999C10.7378 2.08386 10.6275 2.01978 10.504 1.98773V7.0918C10.504 7.49463 10.8216 7.82422 11.2097 7.82422H16.1271ZM8.3871 16.6133H9.79839C11.1612 16.6133 12.2681 17.7623 12.2681 19.1768C12.2681 20.5912 11.1612 21.7402 9.79839 21.7402H9.09274V23.2051C9.09274 23.6079 8.7752 23.9375 8.3871 23.9375C7.99899 23.9375 7.68145 23.6079 7.68145 23.2051V21.0078V17.3457C7.68145 16.9429 7.99899 16.6133 8.3871 16.6133ZM9.79839 20.2754C10.385 20.2754 10.8569 19.7856 10.8569 19.1768C10.8569 18.5679 10.385 18.0781 9.79839 18.0781H9.09274V20.2754H9.79839ZM14.0323 16.6133H15.4435C16.6123 16.6133 17.5605 17.5975 17.5605 18.8105V21.7402C17.5605 22.9533 16.6123 23.9375 15.4435 23.9375H14.0323C13.6442 23.9375 13.3266 23.6079 13.3266 23.2051V17.3457C13.3266 16.9429 13.6442 16.6133 14.0323 16.6133ZM15.4435 22.4727C15.8317 22.4727 16.1492 22.1431 16.1492 21.7402V18.8105C16.1492 18.4077 15.8317 18.0781 15.4435 18.0781H14.7379V22.4727H15.4435ZM18.9718 17.3457C18.9718 16.9429 19.2893 16.6133 19.6774 16.6133H21.7944C22.1825 16.6133 22.5 16.9429 22.5 17.3457C22.5 17.7485 22.1825 18.0781 21.7944 18.0781H20.3831V19.543H21.7944C22.1825 19.543 22.5 19.8726 22.5 20.2754C22.5 20.6782 22.1825 21.0078 21.7944 21.0078H20.3831V23.2051C20.3831 23.6079 20.0655 23.9375 19.6774 23.9375C19.2893 23.9375 18.9718 23.6079 18.9718 23.2051V20.2754V17.3457Z" fill="url(#paint0_linear_155_2684)"/>
<defs>
<linearGradient id="paint0_linear_155_2684" x1="20.1563" y1="27.8437" x2="6.09375" y2="5.96875" gradientUnits="userSpaceOnUse">
<stop stop-color="white" stop-opacity="0"/>
<stop offset="1" stop-color="#00A99D"/>
</linearGradient>
</defs>
</svg>
