<svg width="101" height="42" viewBox="0 0 101 42" fill="none" xmlns="http://www.w3.org/2000/svg">
<path fill-rule="evenodd" clip-rule="evenodd" d="M20.6227 1.27877C19.9245 1.51867 19.3345 1.81104 19.1733 1.99672C19.1458 2.02845 18.9544 2.18114 18.748 2.33607C16.3994 4.09959 16.0321 8.33207 18.0108 10.8363C20.1509 13.5451 24.9731 13.5686 27.1797 10.881C29.2446 8.36605 29.1454 4.58688 26.9595 2.49351C25.4816 1.0781 22.7368 0.552069 20.6227 1.27877ZM41.8785 1.57564C41.7603 1.89926 41.6624 2.20463 41.6604 2.25386C41.6586 2.30309 41.5702 2.5235 41.464 2.7434C41.3578 2.96331 41.2693 3.18372 41.2676 3.23295C41.2656 3.28243 41.0586 3.88967 40.8075 4.58238C40.5564 5.27535 40.1245 6.47185 39.8479 7.24152C39.5713 8.0112 39.3089 8.7309 39.2649 8.84086C39.2209 8.95081 39.0182 9.51307 38.8146 10.0903C38.2431 11.7094 37.8467 12.3339 37.3427 12.4081C37.2265 12.4254 37.113 12.4956 37.0903 12.5643C37.0591 12.6595 37.3255 12.6892 38.2071 12.6892C39.1697 12.6892 39.3648 12.664 39.3648 12.5393C39.3648 12.4568 39.2984 12.3894 39.2172 12.3894C38.7698 12.3894 38.7409 11.9633 39.1145 10.877L39.7379 9.06251C39.7558 9.01056 39.7722 8.96165 39.7876 8.9156C39.8751 8.65482 39.9317 8.48587 40.0459 8.37779C40.2561 8.17897 40.6611 8.18616 41.8113 8.20657C41.9214 8.20852 42.0382 8.21059 42.1624 8.21262L43.9107 8.24111L44.1356 8.69092C44.2593 8.93831 44.3613 9.19746 44.3618 9.26693C44.3623 9.3364 44.4085 9.47134 44.4642 9.5668C45.0445 10.5601 45.477 12.3394 45.1624 12.4394C44.6441 12.6038 45.0712 12.6892 46.4119 12.6892C47.874 12.6892 48.2156 12.595 47.4865 12.3934C46.8572 12.2192 46.5986 11.8481 45.9159 10.1403C45.6522 9.48059 45.3583 8.76089 45.2629 8.54098C45.1674 8.32107 45.0082 7.91624 44.9088 7.64136C44.8093 7.36647 44.6984 7.09658 44.6616 7.04161C44.6251 6.98663 44.4907 6.64927 44.3628 6.29192C44.2348 5.93457 44.0999 5.59721 44.0629 5.54223C44.0259 5.48726 43.891 5.1499 43.763 4.79255C43.6351 4.4352 43.5006 4.09784 43.4641 4.04286C43.4274 3.98788 43.3167 3.718 43.2177 3.44311C43.1188 3.16823 42.9773 2.80838 42.9034 2.64345C42.8294 2.47851 42.6605 2.05294 42.5283 1.69784C42.2207 0.872685 42.1402 0.857691 41.8785 1.57564ZM6.97913 1.15782C6.97938 1.2053 7.11432 1.32075 7.27901 1.41421L7.57813 1.58464V6.89167V12.1987L7.27901 12.3691C6.79271 12.6455 6.91516 12.6892 8.17788 12.6892C9.30841 12.6892 9.72149 12.5795 9.13998 12.4336C8.73565 12.3321 8.67767 12.0148 8.67767 9.90116C8.67767 9.8022 8.67758 9.70747 8.67749 9.61679C8.67627 8.40183 8.67578 7.91423 8.91438 7.71933C9.07433 7.58867 9.34174 7.58956 9.7884 7.59104C9.83799 7.59121 9.88979 7.59138 9.94389 7.59138C9.98644 7.59138 10.027 7.59128 10.0659 7.59119C10.4142 7.59039 10.6189 7.58992 10.7953 7.66024C11.0467 7.76041 11.2408 8.00425 11.7115 8.59545C11.7484 8.64177 11.7869 8.69022 11.8274 8.7409C12.0468 9.01578 12.2529 9.26318 12.2854 9.29067C12.3182 9.31816 12.5118 9.56105 12.716 9.83044C14.572 12.2797 14.9311 12.5411 16.5994 12.6578C17.5999 12.7277 17.7869 12.5843 16.9555 12.3849C16.0021 12.1562 15.4833 11.7409 14.3023 10.2618C13.9855 9.86518 13.7016 9.51807 13.6711 9.49058C13.6408 9.46309 13.304 9.03577 12.9226 8.54098C12.5413 8.04619 12.1712 7.58088 12.1002 7.50666C11.9935 7.39546 12.0485 7.32099 12.4161 7.07759C14.552 5.66268 14.4855 2.35482 12.3012 1.36823C11.7984 1.14107 6.97738 0.950403 6.97913 1.15782ZM28.7693 1.18131C28.7693 1.22929 28.9412 1.29601 29.1516 1.32949C29.6981 1.41696 30.0672 1.84928 30.8716 3.34315L31.5174 4.54265C32.1529 5.72391 32.5055 6.34815 32.7594 6.74173C33.0173 7.14107 33.0175 7.14481 33.0472 9.66751L33.0772 12.1932L32.7731 12.3664C32.2818 12.6458 32.402 12.6892 33.6672 12.6892C34.7978 12.6892 35.2108 12.5795 34.6293 12.4336C34.2197 12.3309 34.167 12.0223 34.167 9.73098C34.167 9.51391 34.1658 9.31925 34.1647 9.14289C34.1602 8.41718 34.1577 8.00114 34.2487 7.60672C34.3711 7.07682 34.6626 6.58595 35.3455 5.43559C35.4691 5.22753 35.6054 4.9979 35.7559 4.74257C36.1772 4.02787 36.6043 3.28368 36.7055 3.08876C37.0883 2.35082 37.7265 1.53991 38.0394 1.39397C38.5382 1.16131 38.432 1.09409 37.5656 1.09409C36.8511 1.09409 36.5455 1.19755 36.8909 1.3225C37.0193 1.36898 36.6075 2.29259 36.0787 3.14324C35.942 3.36314 35.7821 3.63478 35.7234 3.74698C35.2883 4.57714 33.9036 6.78721 33.8334 6.76372C33.7854 6.74773 33.6038 6.46635 33.4298 6.13848C33.2559 5.81062 32.9033 5.15989 32.6464 4.69259L31.8215 3.19322C30.9446 1.59913 30.9016 1.49018 31.0936 1.34974C31.4049 1.12208 31.2875 1.09409 30.0188 1.09409C29.3315 1.09409 28.7693 1.13333 28.7693 1.18131ZM49.2615 1.16906C49.2617 1.21029 49.3967 1.32075 49.5613 1.41421L49.8605 1.58464L49.8602 6.61204L49.8602 6.76776C49.8599 11.2169 49.8598 11.9623 49.4963 12.2525C49.4231 12.3109 49.3353 12.3508 49.2297 12.3989L49.211 12.4074C48.6702 12.654 49.0878 12.6892 52.5401 12.6892H56.1193L56.279 12.3144L56.4157 11.9939L56.4252 11.9715C56.5331 11.7185 56.6728 11.3909 56.7981 11.0974C56.9957 10.6341 57.1574 10.218 57.1574 10.1728C57.1574 9.97738 56.9882 10.1183 56.8066 10.4652C56.1413 11.7356 55.0268 12.2894 53.1346 12.2894C53.0436 12.2894 52.9563 12.2898 52.8728 12.2902C52.2188 12.2933 51.788 12.2953 51.5043 12.092C50.9567 11.6996 50.9575 10.542 50.9597 7.14974C50.9599 6.92506 50.96 6.69057 50.96 6.44586C50.96 1.29626 50.9603 1.29401 51.5098 1.29401C51.5922 1.29401 51.6597 1.24903 51.6597 1.19405C51.6597 1.13308 51.1932 1.09409 50.4602 1.09409C49.8005 1.09409 49.261 1.12783 49.2615 1.16906ZM23.2106 1.29751C28.3312 2.0377 29.1006 11.0167 24.1607 12.3856C22.8962 12.736 21.032 12.4299 20.3161 11.7541C20.2496 11.6912 20.0724 11.5507 19.9225 11.442C19.3839 11.0517 18.7872 10.1483 18.2699 8.94081C17.8993 8.07542 17.7834 6.23919 18.026 5.07393C18.5281 2.66294 19.883 1.47143 22.4219 1.20829C22.4769 1.20255 22.8318 1.24278 23.2106 1.29751ZM11.3655 1.60538C13.0371 2.32758 13.3712 6.08201 11.8513 7.0636C11.2161 7.47393 9.26393 7.46218 8.90583 7.04586C8.63119 6.72649 8.53973 1.73283 8.80462 1.51292C9.11924 1.25203 10.6778 1.308 11.3655 1.60538ZM42.4556 4.34348C42.6805 4.94773 42.9086 5.53224 42.9623 5.64219C43.1178 5.96031 43.763 7.69908 43.763 7.79979C43.763 7.85177 42.9868 7.89125 41.9708 7.89125H40.1785L40.2632 7.61637C40.31 7.46518 40.5583 6.75673 40.815 6.04203C41.0716 5.32732 41.3265 4.60762 41.381 4.44269C41.4357 4.27776 41.5187 4.05286 41.5652 3.9429C41.6119 3.83295 41.7039 3.56756 41.7696 3.35315L41.7704 3.35053C41.8206 3.18692 41.8532 3.08091 41.8978 3.07554C41.98 3.06566 42.1031 3.39659 42.453 4.33655L42.4556 4.34348ZM20.1729 15.0982C20.1729 15.1585 20.1106 15.3496 20.0344 15.5231C19.9585 15.6962 19.7283 16.3102 19.5231 16.8875C19.318 17.4648 19.0878 18.0787 19.0119 18.2519C18.9356 18.4253 18.8734 18.6003 18.8734 18.641C18.8734 18.682 18.6005 19.4622 18.2667 20.3753C17.4725 22.5486 17.1071 23.5777 17.0204 23.8846C16.9815 24.022 16.9147 24.1794 16.8717 24.2344C16.829 24.2894 16.7448 24.5143 16.6848 24.7342C16.4857 25.4639 16.0189 26.1466 15.581 26.3485C14.9625 26.6339 15.08 26.6834 16.3745 26.6834C17.5929 26.6834 17.8131 26.6177 17.2741 26.414C16.8343 26.2481 16.8603 25.7343 17.3743 24.4343C17.4178 24.3244 17.6089 23.8071 17.7991 23.2848L18.1447 22.3352H20.1181H22.0918L22.4169 23.1849L23.1061 24.9841C23.5022 26.0177 23.5525 26.3588 23.3216 26.4472C22.9042 26.6074 23.3061 26.6834 24.571 26.6834C25.9027 26.6834 26.3628 26.5794 25.6351 26.4427C25.0058 26.3248 24.6595 25.784 23.7719 23.5347C23.4897 22.82 23.2001 22.1003 23.1281 21.9354C23.0559 21.7705 22.9162 21.4106 22.8173 21.1357C22.7183 20.8608 22.6076 20.5909 22.5709 20.536C22.5344 20.481 22.3999 20.1436 22.272 19.7863C22.144 19.4289 22.0096 19.0916 21.9731 19.0366C21.9364 18.9816 21.8257 18.7117 21.7267 18.4368C21.6278 18.162 21.4883 17.8021 21.4163 17.6372C21.3446 17.4722 21.1225 16.9325 20.9231 16.4377C20.7234 15.9429 20.507 15.4144 20.442 15.2632C20.3231 14.9865 20.1729 14.8943 20.1729 15.0982ZM27.3699 20.371C27.3699 26.0851 27.3511 26.3343 26.9101 26.445C26.3835 26.5772 26.7224 26.6834 27.6697 26.6834C28.2695 26.6834 28.6693 26.6434 28.6693 26.5834C28.6693 26.5285 28.6036 26.4835 28.5234 26.4835C27.9779 26.4835 27.9696 26.4103 27.9696 21.5605V17.0752L28.3837 17.5562C28.6113 17.8206 28.825 18.0595 28.8585 18.087C28.8917 18.1145 29.2341 18.4953 29.6189 18.9334C30.0038 19.3712 30.3861 19.802 30.4686 19.8907C30.6672 20.1044 31.7485 21.3326 32.1774 21.8317C32.3645 22.0493 32.5852 22.2997 32.6676 22.3882C32.9313 22.6706 34.2225 24.1205 34.5756 24.5305C34.7633 24.7482 34.9842 24.9976 35.0666 25.0843C35.1491 25.1713 35.5057 25.5666 35.8591 25.9629C36.2122 26.3593 36.5383 26.6834 36.5838 26.6834C36.629 26.6834 36.666 24.2574 36.666 21.2922C36.666 15.6435 36.6812 15.4383 37.1115 15.3304C37.6063 15.2062 37.2402 15.0882 36.3601 15.0882C35.8311 15.0882 35.4665 15.129 35.4665 15.1882C35.4665 15.2432 35.5314 15.2882 35.6107 15.2882C36.0475 15.2882 36.0662 15.4906 36.0662 20.1834L36.066 24.6343L35.8298 24.3599C35.7001 24.2089 35.324 23.7816 34.9944 23.4103C34.6648 23.0389 34.2425 22.5551 34.0563 22.3352C33.8699 22.1153 33.6917 21.9129 33.66 21.8854C33.6282 21.8579 33.2289 21.4081 32.7726 20.8858C32.0542 20.0637 30.9311 18.7909 30.6185 18.4451C30.5635 18.3841 30.2042 17.975 29.8198 17.536C29.4352 17.0969 29.0979 16.7151 29.0701 16.6876C29.0422 16.6601 28.6883 16.2665 28.284 15.8129C27.8794 15.3594 27.5083 14.9883 27.4593 14.9883C27.4078 14.9883 27.3699 17.2743 27.3699 20.371ZM43.3632 15.0478C37.74 16.0658 36.5978 23.7436 41.7069 26.1801C43.5489 27.0585 47.935 27.1712 48.3441 26.3505C48.9004 25.234 49.0765 24.4039 48.6242 25.0291C47.2188 26.9733 43.7808 27.0053 41.6139 25.0946C39.1434 22.9162 38.8223 18.6103 40.9734 16.5042C42.5808 14.9303 46.5533 14.8176 47.9283 16.3065C48.1957 16.5959 48.561 17.2473 48.561 17.4345C48.561 17.512 48.606 17.6032 48.661 17.6372C48.7254 17.6769 48.7609 17.2903 48.7609 16.5496V15.4004L48.2861 15.3394C48.025 15.3059 47.6314 15.2329 47.4115 15.1772C46.9939 15.0713 43.7975 14.969 43.3632 15.0478ZM54.5777 15.2632C54.3056 15.9759 53.8588 17.2601 53.8588 17.3296C53.8588 17.372 53.7966 17.5487 53.7203 17.7221C53.6444 17.8953 53.4157 18.5093 53.2123 19.0866C53.0091 19.6638 52.8015 20.2144 52.751 20.3098C52.7005 20.4053 52.6593 20.5332 52.6593 20.5944C52.6593 20.6557 52.5971 20.8473 52.5208 21.0208C52.4449 21.1939 52.2155 21.8079 52.0111 22.3852C51.8069 22.9625 51.6005 23.5247 51.5528 23.6347C51.5048 23.7446 51.3673 24.127 51.2471 24.4843C50.8793 25.5779 50.5434 26.1076 50.0756 26.3333C49.4511 26.6342 49.5546 26.6834 50.8101 26.6834C51.9603 26.6834 52.1782 26.6152 51.7097 26.4018C51.3513 26.2383 51.3693 25.5829 51.7582 24.6343C51.8032 24.5243 51.9396 24.142 52.061 23.7846C52.1827 23.4273 52.3447 22.9932 52.4209 22.82C52.4969 22.6466 52.5593 22.4547 52.5593 22.3929C52.5593 22.3132 53.1373 22.289 54.572 22.3082L56.5844 22.3352L56.9235 23.2348C57.1099 23.7296 57.4435 24.5995 57.6647 25.168C58.0725 26.2163 58.0785 26.4835 57.6949 26.4835C57.6192 26.4835 57.5572 26.5285 57.5572 26.5834C57.5572 26.6454 58.107 26.6834 59.0066 26.6834C60.3793 26.6834 60.8566 26.5809 60.1237 26.4435C59.5537 26.3365 58.9767 25.5189 58.4589 24.0845C58.3299 23.7271 58.194 23.3898 58.157 23.3348C58.12 23.2798 57.9851 22.9425 57.8571 22.5851C57.7292 22.2278 57.5947 21.8904 57.5582 21.8354C57.5215 21.7804 57.4106 21.5106 57.3111 21.2357C57.1432 20.7709 56.8715 20.1084 56.6551 19.6363C56.6046 19.5264 56.2665 18.6717 55.9037 17.7371C54.8611 15.052 54.8346 14.9883 54.7567 14.9883C54.7159 14.9883 54.6355 15.112 54.5777 15.2632ZM63.1702 15.181C61.7465 15.7115 60.9241 17.0137 61.1145 18.4358C61.2842 19.7051 62.1183 20.4635 64.3424 21.3711C66.8436 22.3917 67.7805 23.999 66.7829 25.5574C65.8758 26.9748 62.8285 26.9868 61.8554 25.5766C61.773 25.4572 61.6605 25.3087 61.6056 25.2467C61.4611 25.0838 61.108 24.3036 60.9553 23.8096C60.8831 23.5759 60.7809 23.3848 60.7282 23.3848C60.6757 23.3848 60.6622 23.486 60.6987 23.6097C60.7539 23.7984 61.0483 25.5196 61.054 25.6873C61.055 25.7166 61.202 25.8258 61.3806 25.9297C61.5593 26.0334 61.728 26.1444 61.7555 26.1761C62.5871 27.133 65.5374 27.0832 67.0258 26.0871C69.4555 24.4608 68.6001 21.5893 65.254 20.1399C62.882 19.1123 62.4574 18.7887 62.2041 17.8161C61.4621 14.968 65.9582 14.1531 67.3512 16.8832C67.6403 17.4503 67.753 17.3875 67.753 16.6598C67.753 15.9604 67.683 15.8582 67.0033 15.565C65.6656 14.9883 64.1063 14.8321 63.1702 15.181ZM6.97913 15.1632C6.97938 15.2044 7.11432 15.3149 7.27901 15.4084L7.57813 15.5788V20.5345C7.57813 25.9797 7.57363 26.0249 6.98313 26.3608C6.4466 26.6662 6.62128 26.6834 10.2663 26.6834H13.8538L14.3668 25.4657C14.9868 23.9933 14.9755 23.8436 14.3126 24.752C13.4284 25.9639 12.2802 26.4572 10.5601 26.3645C10.503 26.3615 10.4477 26.3586 10.394 26.3559C9.84876 26.328 9.47658 26.309 9.22256 26.126C8.67616 25.7323 8.6765 24.5798 8.67757 20.9481C8.67762 20.782 8.67767 20.6107 8.67767 20.434C8.67767 15.3624 8.68492 15.2882 9.17746 15.2882C9.23244 15.2882 9.27742 15.2432 9.27742 15.1882C9.27742 15.1275 8.82761 15.0882 8.1279 15.0882C7.49567 15.0882 6.97863 15.122 6.97913 15.1632ZM69.1524 16.0878C69.1524 17.2433 69.2244 17.3223 69.5023 16.4722C69.8039 15.5501 69.9986 15.4721 71.9088 15.5091C72.1212 15.5132 72.31 15.51 72.4777 15.5072C72.9199 15.4998 73.2163 15.4948 73.4152 15.6316C73.8196 15.9099 73.8206 16.7743 73.8236 19.3967C73.8242 19.8863 73.8249 20.4371 73.8282 21.0567L73.8557 26.1899L73.5538 26.3618C73.0675 26.6384 73.1857 26.6834 74.4002 26.6834C75.0999 26.6834 75.5497 26.6442 75.5497 26.5834C75.5497 26.5285 75.4893 26.4835 75.4153 26.4835C74.955 26.4835 74.95 26.4268 74.95 21.1432C74.95 20.6218 74.9484 20.1477 74.9469 19.7167C74.9376 16.9456 74.9342 15.9555 75.4004 15.6225C75.6596 15.4373 76.0639 15.4554 76.693 15.4834C76.8691 15.4913 77.0627 15.4999 77.2758 15.5051C78.9061 15.5446 79.0848 15.6303 79.3961 16.5211C79.6755 17.3206 79.748 17.2313 79.748 16.0878V15.0882H74.4502H69.1524V16.0878ZM81.3473 15.1305C81.3473 15.1537 81.4845 15.3102 81.6524 15.4778L81.9576 15.783L81.9273 20.7084L81.8971 25.6338L81.6672 26.0034C81.5407 26.2068 81.3496 26.401 81.2423 26.435C80.6244 26.6312 81.3293 26.6834 84.6009 26.6834H88.1547L88.3059 26.3086C88.3891 26.1024 88.549 25.7328 88.6615 25.4871C89.0216 24.6997 89.0526 24.5843 88.9032 24.5843C88.8282 24.5843 88.694 24.7382 88.6045 24.9266C88.0385 26.1194 85.7617 26.7634 83.9807 26.2346C83.1133 25.9769 83.1016 25.945 83.0636 23.7576C83.0146 20.9251 83.0271 20.9018 84.6462 20.8094C86.3067 20.7146 87.3448 21.057 87.3448 21.699C87.3448 21.8014 87.3898 21.8854 87.4448 21.8854C87.506 21.8854 87.5447 21.4024 87.5447 20.6359C87.5447 19.3849 87.4697 19.1098 87.2906 19.7031C87.1174 20.2766 86.8223 20.3968 85.4863 20.4393L85.3803 20.4426C85.3947 20.4273 85.2493 20.4166 84.9958 20.417C84.6659 20.4175 84.543 20.4363 84.7226 20.4585L84.7289 20.4593C84.01 20.4691 83.5953 20.4271 83.3587 20.1997C83.0346 19.8882 83.0448 19.229 83.0658 17.8789L83.0658 17.8723C83.0682 17.719 83.07 17.5757 83.0717 17.4418C83.0849 16.3834 83.0907 15.9133 83.3278 15.7C83.5172 15.5295 83.8542 15.523 84.4605 15.5114C84.5565 15.5096 84.6592 15.5076 84.7691 15.5048C86.9027 15.4506 87.3091 15.6058 87.6867 16.6186C87.9426 17.3058 87.9898 17.1341 87.8451 16.0411L87.7189 15.0882H84.5332C82.781 15.0882 81.3473 15.1072 81.3473 15.1305ZM90.1436 15.1882C90.1436 15.2432 90.1886 15.2882 90.2436 15.2882C90.7414 15.2882 90.7434 15.3122 90.7434 20.9405V26.1929L90.4443 26.3633C89.9605 26.6384 90.0802 26.6834 91.2932 26.6834C92.3432 26.6834 92.7468 26.5864 92.244 26.4547C91.9121 26.368 91.8429 25.9497 91.8429 24.0345C91.8429 23.9247 91.8428 23.8201 91.8427 23.7203C91.8413 22.4838 91.8407 21.9969 92.0781 21.8061C92.2324 21.6822 92.487 21.6833 92.9071 21.685C92.9594 21.6853 93.0143 21.6855 93.0719 21.6855C93.1839 21.6855 93.283 21.6839 93.3719 21.6824C93.6544 21.6778 93.833 21.6749 93.9907 21.7309C94.262 21.8271 94.4715 22.0974 95.0412 22.8324C95.1454 22.9669 95.2616 23.1168 95.3924 23.2841C97.7567 26.3063 98.0311 26.5267 99.5712 26.6397C100.54 26.7109 100.942 26.5812 100.19 26.4403C99.1216 26.2398 98.4831 25.6501 96.342 22.885C95.7673 22.1428 95.2602 21.5093 95.2153 21.4771C95.17 21.4448 95.3185 21.2902 95.5451 21.1332C96.4537 20.5036 96.9546 19.5682 97.0783 18.6237C97.0862 18.6798 97.0981 18.6803 97.1112 18.6118C97.1352 18.4881 97.1352 18.2857 97.1112 18.162L97.1088 18.1501C97.1063 16.8173 96.3544 15.5663 94.9401 15.2447C94.135 15.0615 90.1436 15.0145 90.1436 15.1882ZM93.991 15.4488C95.3095 15.78 95.8447 16.5756 95.918 18.3131C96.0152 20.6157 95.4219 21.3399 93.462 21.3109C92.2028 21.2924 92.0878 21.2587 91.9511 20.8668C91.8214 20.4947 91.8039 15.8042 91.9314 15.603C92.1283 15.2924 93.0834 15.2209 93.991 15.4488ZM20.6254 18.4518C20.7064 18.6253 20.7726 18.8362 20.7726 18.9209C20.7726 19.0056 20.8141 19.1003 20.8648 19.1318C20.9156 19.163 20.9888 19.333 21.0275 19.5091C21.0662 19.6856 21.1372 19.8987 21.1849 19.9829C21.2976 20.1811 21.8722 21.707 21.8722 21.8082C21.8722 21.8507 21.08 21.8854 20.1116 21.8854H18.3514L18.4213 21.5106C18.4598 21.3044 18.5278 21.0907 18.572 21.0358C18.6165 20.9808 18.6995 20.7784 18.7565 20.5859C18.9489 19.937 19.8577 17.3693 19.9157 17.3113C19.9472 17.2798 19.9752 17.1604 19.9779 17.0457C19.9804 16.9312 20.0941 17.1299 20.2303 17.4872C20.3668 17.8446 20.5445 18.2787 20.6254 18.4518ZM55.8122 20.3753C56.1123 21.1667 56.3577 21.8302 56.3577 21.8497C56.3577 21.8694 55.5481 21.8854 54.5585 21.8854C53.5689 21.8854 52.7595 21.8742 52.7598 21.8604C52.76 21.8467 52.866 21.543 52.9954 21.1857C53.4832 19.838 54.2156 17.7416 54.4276 17.0874C54.4763 16.937 54.7986 17.7024 55.8122 20.3753ZM0.581055 40.7908V20.9358V1.08085L0.85594 1.11234L1.13082 1.14407V20.9358V40.7275L0.85594 40.7593L0.581055 40.7908ZM16.9217 39.3391C13.6623 36.0395 15.4139 30.0345 19.873 29.2203C22.5046 28.7395 25.0101 29.6197 26.2553 31.4619C27.6862 33.5788 27.4723 37.0503 25.7985 38.8773C25.6733 39.0142 25.5706 39.1564 25.5706 39.1937C25.5706 39.2309 25.2907 39.4716 24.9484 39.7289C22.4497 41.6072 18.9966 41.4395 16.9217 39.3391ZM28.6917 40.5552C28.9732 40.4333 28.9692 39.652 28.9692 34.6646C28.9692 30.7617 29.0014 29.0824 29.0764 29.0824C29.0901 29.0824 29.1022 29.0823 29.1142 29.0836C29.2099 29.094 29.2961 29.1926 30.1187 30.127C30.5035 30.564 30.8859 30.9948 30.9684 31.0843C31.0508 31.174 31.4107 31.5794 31.768 31.9854C33.1387 33.5425 33.3361 33.7669 33.9671 34.4854C34.5194 35.1144 34.8212 35.456 35.5165 36.2382C35.5714 36.3001 35.8863 36.6602 36.2162 37.0386C36.546 37.4167 37.0061 37.9292 37.2385 38.1773L37.6608 38.6284L37.6633 34.1708C37.6653 30.2543 37.6777 29.6484 37.4013 29.4549C37.3387 29.4111 37.2614 29.3884 37.1658 29.3533C37.0833 29.3228 37.4656 29.2948 38.0154 29.2906L39.015 29.2831L38.6901 29.4812L38.3653 29.6791V35.2283C38.3653 39.6257 38.3704 40.7301 38.1705 40.7685C38.099 40.7823 38.0013 40.6597 37.8677 40.5026C37.739 40.3514 37.4724 40.0466 37.275 39.8252C37.0776 39.6035 36.601 39.0662 36.2162 38.6309C35.8313 38.1956 35.2746 37.5671 34.9789 37.2342C34.176 36.3306 34.0106 36.1437 32.7641 34.73C32.1341 34.0153 31.5734 33.3808 31.5184 33.3204C31.23 33.003 30.0617 31.6913 29.8358 31.4314L29.5752 31.1315L29.5722 35.5912C29.5687 40.4634 29.5824 40.5776 30.1759 40.5776C30.2819 40.5776 30.3686 40.6226 30.3686 40.6776C30.3686 40.7375 29.9688 40.7775 29.369 40.7775C28.7693 40.7775 28.3694 40.7375 28.3694 40.6776C28.3694 40.6226 28.4222 40.5776 28.4866 40.5776C28.5679 40.5776 28.6355 40.5795 28.6917 40.5552ZM52.813 36.0457C52.3074 32.8758 54.496 29.6192 57.4186 29.1926C59.8183 28.8425 61.8574 29.3895 63.1976 30.7432C64.5731 32.1319 65.1083 34.3652 64.5668 36.4541C62.9227 42.7972 53.839 42.4818 52.813 36.0457ZM65.948 40.5776C66.451 40.5776 66.4535 40.5476 66.4535 34.6078C66.4535 30.0575 66.4773 29.0824 66.5875 29.0824C66.7337 29.0824 66.9126 29.2693 68.4027 30.9786C68.9525 31.6093 69.4698 32.1961 69.5522 32.2831C69.6347 32.3698 69.9721 32.7506 70.3019 33.1295C71.4187 34.4122 71.6011 34.6201 71.7513 34.782C71.8338 34.871 72.1711 35.2538 72.501 35.6329C72.8309 36.012 73.3257 36.5725 73.6005 36.8784C73.8754 37.184 74.3362 37.703 74.6246 38.0314L75.1486 38.6284L75.1494 34.2242C75.1498 30.303 75.1533 29.7402 74.878 29.5086C74.8284 29.4668 74.7696 29.4358 74.7001 29.3978C74.5441 29.3126 74.7198 29.2878 75.4997 29.2858L76.4993 29.2831L76.1745 29.4812L75.8496 29.6791V35.2283C75.8496 39.5651 75.8623 40.7179 75.645 40.763C75.5558 40.7815 75.4279 40.6136 75.2446 40.4027C74.794 39.8841 73.6325 38.5744 73.4506 38.3795C73.3681 38.291 73.0308 37.9062 72.7009 37.5241C72.0932 36.8197 71.5242 36.1757 71.2515 35.8836C71.1691 35.7951 70.7867 35.3668 70.4019 34.9317C70.017 34.4964 69.6347 34.0673 69.5522 33.9781C69.2499 33.6505 68.6876 33.0135 68.1028 32.3358C67.773 31.9537 67.4244 31.5601 67.3282 31.4612C67.1615 31.29 67.1532 31.4914 67.1532 35.7296C67.1532 40.5431 67.1572 40.5776 67.703 40.5776C67.7855 40.5776 67.8529 40.6226 67.8529 40.6776C67.8529 40.7378 67.4364 40.7775 66.8034 40.7775C66.1704 40.7775 65.7538 40.7378 65.7538 40.6776C65.7538 40.6226 65.8413 40.5776 65.948 40.5776ZM40.5389 29.4138C40.3882 29.359 40.6915 29.3118 41.464 29.2698C44.4367 29.1084 47.0171 29.2941 48.0262 29.7421C48.1997 29.8191 48.3703 29.8821 48.4061 29.8821C48.5403 29.8821 49.5838 30.5988 49.858 30.8791C53.1161 34.212 51.0962 40.0293 46.4214 40.776C45.6362 40.9015 40.3644 40.8022 40.3644 40.6621C40.3644 40.6156 40.4319 40.5776 40.5144 40.5776C40.6145 40.5776 40.6964 40.579 40.7634 40.5482C41.067 40.4081 41.0641 39.6036 41.0641 34.9872C41.0641 30.3804 41.0791 29.7154 40.7813 29.5147C40.7164 29.471 40.6367 29.4493 40.5389 29.4138ZM7.58338 29.6824L7.25601 29.4827L6.9284 29.2831L8.16763 29.2826L9.40687 29.2823L9.06726 29.5112L8.72765 29.7401L8.70166 34.4781C8.67915 38.5921 8.64115 39.7893 9.18606 40.1861C9.43955 40.3707 9.81918 40.3821 10.3852 40.4334C12.3107 40.6081 14.1459 39.7454 14.5984 38.4535C14.6919 38.1868 14.8751 38.0731 14.8751 38.2816C14.8751 38.3735 14.516 39.2991 14.2753 39.8279C14.2254 39.9379 14.1171 40.1965 14.0349 40.4027L13.8857 40.7775H10.282C7.00487 40.7775 6.2247 40.7223 6.90341 40.5384C7.01497 40.5081 7.10652 40.4855 7.18182 40.4374C7.53177 40.2139 7.5308 39.4409 7.55589 34.8053L7.58338 29.6824ZM24.8956 31.3777C24.4286 30.6085 23.5252 29.9273 22.5074 29.5772C21.7744 29.325 20.363 29.325 19.5616 29.5772C19.0346 29.7429 17.8743 30.4228 17.8733 30.5665C17.8731 30.6025 17.7451 30.7679 17.5892 30.9344C16.5296 32.0646 16.0643 35.4742 16.7658 36.9684C17.8538 39.2856 18.8304 40.2132 20.5752 40.5873C21.5813 40.8032 23.1786 40.5326 23.8613 40.0308C25.3832 38.912 25.9225 37.6398 25.9172 35.1798C25.9137 33.5878 25.5981 32.1569 25.1675 31.7813C25.136 31.7538 25.0136 31.5721 24.8956 31.3777ZM50.1603 35.3438C50.1603 31.9552 48.2579 29.8286 44.9625 29.534C44.6052 29.502 44.1329 29.46 43.9129 29.4405C43.3802 29.3933 42.4973 29.5297 42.3059 29.6886C42.0805 29.8756 42.1327 39.606 42.3611 39.9501C42.8037 40.6181 45.4108 40.8817 46.8617 40.4054C49.2342 39.6267 50.1603 38.2056 50.1603 35.3438ZM62.5052 31.4969C61.801 30.5493 61.0538 29.9653 60.1052 29.6212C56.1586 28.1885 52.8632 32.2808 54.3086 36.8197C55.838 41.6232 61.5958 42.0842 63.1629 37.5289C63.7387 35.8551 63.3938 32.6926 62.5052 31.4969Z" fill="black"/>
</svg>
