<svg width="73" height="32" viewBox="0 0 73 32" fill="none" xmlns="http://www.w3.org/2000/svg">
<path fill-rule="evenodd" clip-rule="evenodd" d="M71.4337 1.60967H71.4853L71.4838 1.61114C71.5619 1.61114 71.6665 1.61114 71.7446 1.62882C71.8491 1.66417 71.8491 1.78644 71.8491 1.89103C71.8491 1.99562 71.8491 2.20626 71.8757 2.29317H72.2145V2.2755C72.1364 2.22247 72.1364 1.82032 72.1364 1.76729C72.1364 1.60967 72.0848 1.50508 71.9022 1.46973C72.1113 1.43438 72.1629 1.25908 72.1629 1.08379C72.1629 0.78623 71.9552 0.681641 71.6945 0.681641H71.1214V2.29317H71.4337V1.60967ZM71.4337 1.41817V0.980672L71.6414 0.979202C71.7725 0.979202 71.8506 1.01455 71.8506 1.18985C71.8506 1.34747 71.7725 1.41817 71.6679 1.41817H71.4337ZM27.5909 19.5944H16.5577V17.4422H27.5909V19.5944ZM27.5924 19.5944H38.6256V17.4422H27.5924V19.5944ZM16.5577 19.5944H5.52442V17.4422H16.5577V19.5944ZM1.66352 25.8739L4.15447 31.3183L6.51874 25.8739L7.20077 25.2596H5.13848L5.90447 25.8827L4.43141 29.2663L2.9333 25.9166L3.73318 25.2596H0.972656L1.66352 25.8739ZM9.95098 28.2116C9.95098 26.7223 10.9777 25.1565 12.8794 25.1565C14.7812 25.1565 15.8079 26.7223 15.8079 28.2116C15.8079 29.7009 14.7723 31.2668 12.8794 31.2668C10.9865 31.2668 9.95098 29.7009 9.95098 28.2116ZM14.5204 28.5401V27.8831C14.5204 26.8314 14.1419 25.51 12.8794 25.51C11.617 25.51 11.2384 26.8314 11.2384 27.8831V28.5401C11.2384 29.6007 11.617 30.9132 12.8794 30.9132C14.1419 30.9132 14.5204 29.6007 14.5204 28.5401ZM19.9045 25.8651V30.5598L19.2225 31.1652H21.6295C23.7418 31.1652 24.8525 30.0295 24.8525 28.2117C24.8525 26.394 23.6741 25.2582 21.7723 25.2582H19.2225L19.9045 25.8651ZM23.5901 28.331C23.5901 30.0221 22.9847 30.713 21.5205 30.713H20.9651V25.7134H21.5205C23.0348 25.7134 23.5901 26.8506 23.5901 28.331ZM31.2971 31.1667L31.9792 30.5613L30.0274 28.1292V30.5613L30.7094 31.1667H28.2862L28.9682 30.5613V25.8651L28.2862 25.2582H30.7094L30.0274 25.8651V28.0688L31.8613 26.3615V25.2582H33.8647L32.3754 26.4706L31.0467 27.7153L33.3948 30.5937L34.1947 31.1667H31.3001H31.2971ZM41.2934 30.5937L40.6453 31.1667H43.1288L42.4306 30.5524L40.0236 25.108L37.6093 30.5436L36.9184 31.1667H38.8452L38.1631 30.5686L38.6006 29.5507H40.8559L41.2934 30.5937ZM39.7187 26.8904L40.6364 29.0455H40.6349H38.801L39.7187 26.8904Z" fill="black"/>
</svg>
