<svg width="79" height="54" viewBox="0 0 79 54" fill="none" xmlns="http://www.w3.org/2000/svg">
<path fill-rule="evenodd" clip-rule="evenodd" d="M35.7162 12.7101C37.1962 12.7101 38.5762 13.0601 39.6262 13.3301C37.3962 12.9401 33.9362 13.5101 32.1462 14.9101V22.6401H38.7062V13.8501C40.1262 14.1101 41.1962 14.6801 41.8562 15.1301V22.6401H43.2862C41.9462 24.1501 39.4362 25.0801 37.2762 24.7401V25.0601C43.5162 25.5501 46.1462 22.6001 46.1462 19.2701C46.1462 15.3501 42.4762 13.0601 38.7162 12.5901V6.81008H32.1562V12.6601C27.9162 13.5101 23.7562 16.0401 23.7562 20.2201C23.7562 26.6501 32.7462 30.6401 40.5762 30.6401C52.4662 30.6401 61.6162 24.9001 61.6162 16.8301C61.5962 7.05008 48.3862 0.0800781 38.0162 0.0800781C26.1262 0.0800781 17.3762 7.63008 17.3762 15.7001C17.3762 19.8801 19.7262 23.3801 22.6762 25.8201L22.8962 25.6701C20.5562 23.7201 18.4462 20.6901 18.4462 16.5201C19.0662 7.69008 29.9462 2.72008 39.6262 2.72008C46.4762 2.72008 58.7762 4.30008 58.7762 15.7501C58.7762 21.7201 52.3962 29.4901 38.9862 29.4901C32.1262 29.4901 26.7862 25.8101 26.7862 20.5301C26.7862 15.9601 30.3662 12.7001 35.7062 12.7001L35.7162 12.7101ZM47.0462 19.4901C47.0462 20.4801 46.7962 21.6301 46.0662 22.6401H48.1162V6.80008H41.5562V13.2701C45.0962 14.3701 47.0362 16.6401 47.0362 19.4901H47.0462ZM10.3162 52.7001V53.6001H18.6962V52.7001H16.5462V36.8101H18.6962V35.9101H10.3162V36.8101H12.6162V43.8501H6.47621V36.8101H8.83621V35.9101H0.366211V36.8101H2.51621V52.7001H0.366211V53.6001H8.83621V52.7001H6.47621V44.9001H12.6162V52.7001H10.3162ZM21.9462 38.0101V35.9101H25.7862V38.0101H21.9462ZM20.0562 53.6101V52.7101H22.1262V41.8301H20.0562V40.9301H25.9362V52.7101H27.8562V53.6101H20.0562ZM28.6762 52.7001V53.6001V53.6101H36.6462V52.7101H34.6362V33.5901H28.6762V34.4901H30.7962V52.7001H28.6762ZM42.6362 53.6001C40.5362 53.6001 39.4062 52.5201 39.4062 50.8601V41.8101H37.3362V40.9101H39.4062V35.8801C39.7887 35.8801 40.1788 35.8833 40.5726 35.8866H40.5727H40.5728L40.5742 35.8867C41.3741 35.8933 42.1891 35.9002 42.9862 35.8801V40.9101H45.9562V41.8101H42.9862V52.6901H46.0162V53.5901H42.6362V53.6001ZM53.7762 53.9201C58.1662 53.9201 59.9662 50.9801 60.4062 49.7901C60.7562 48.9201 60.8462 47.9001 60.7862 46.9701C60.4662 42.1701 56.4462 40.5101 53.6862 40.5101C50.5762 40.5101 46.3862 42.4601 46.3862 47.1701C46.3862 50.5701 48.8862 53.9201 53.7762 53.9201ZM53.6562 41.3501C54.8462 41.3501 55.7562 41.8401 56.2462 42.9501L56.252 42.9629C56.4305 43.3591 56.6265 43.7945 56.6562 46.9901C56.6862 49.9601 56.6862 53.1901 53.6862 53.1901C52.3462 53.1901 51.5362 52.5201 51.1562 51.7901C50.9262 51.3601 50.6062 50.7201 50.6062 47.1101C50.6062 44.4301 50.6562 41.3501 53.6562 41.3501ZM71.0362 53.5901V52.7001H72.7262V45.2201C72.7262 43.5301 72.7262 41.8701 70.8662 41.8701C69.8162 41.8701 68.0962 42.9201 67.6962 44.6301C67.5695 45.0693 67.5712 45.5371 67.5748 46.5096C67.5755 46.6884 67.5762 46.8842 67.5762 47.1001V52.6901H69.4962V53.5901H61.6962V52.6901H63.7662V41.8101H61.6962V40.9101H67.5762V42.8301C68.2162 42.0201 68.7362 41.4301 69.9862 40.9401C70.8862 40.5601 71.7062 40.4701 72.2862 40.4701C72.5162 40.4701 73.2162 40.4701 74.0362 40.7001C76.4762 41.4301 76.5962 43.2901 76.5962 44.6301V52.6901H78.6062V53.5901H71.0362ZM57.1162 28.3601H57.7362V30.6101H58.0362V28.3601H58.6562V28.1301H57.1162V28.3601ZM60.4162 30.1601H60.4062L59.6262 28.1401H59.2062V30.6201H59.5062V28.7601H59.5162L60.2662 30.6201H60.5362L61.2662 28.7601H61.2762V30.6201H61.5762V28.1401H61.1862L60.4162 30.1601Z" fill="black"/>
</svg>
