<svg width="109" height="33" viewBox="0 0 109 33" fill="none" xmlns="http://www.w3.org/2000/svg">
<g style="mix-blend-mode:difference" clip-path="url(#clip0_67_526)">
<path d="M3.01024 16.2157H0V11.4776H3.01024V8.38962C3.01024 5.69332 3.83951 3.62118 5.49806 2.17321C7.1566 0.725247 9.30714 0 11.9547 0C13.4662 0 14.7748 0.232483 15.8805 0.694923V5.95612C15.036 5.5796 14.1484 5.39008 13.2202 5.39008C11.9978 5.39008 11.0899 5.66552 10.494 6.2164C9.89802 6.76729 9.59878 7.6669 9.59878 8.9127V11.4776H14.5719V16.2157H9.59878V32.3455H3.01024V16.2157Z" fill="#F2F2F2"/>
<path d="M36.9219 11.4775H43.2923V14.4771C44.1368 13.4637 45.3135 12.6879 46.8275 12.1522C48.339 11.6165 50.0558 11.3486 51.9756 11.3486V16.347C49.9696 16.347 48.202 16.6528 46.6753 17.2593C45.1487 17.8683 44.0937 18.7957 43.513 20.0415V32.3454H36.9244V11.4775H36.9219Z" fill="#F2F2F2"/>
<path d="M52.5866 11.4777H58.739V13.9997C59.6392 12.9863 60.6866 12.203 61.8811 11.6521C63.073 11.1012 64.3106 10.8258 65.5887 10.8258C67.1889 10.8258 68.4696 11.081 69.4282 11.5864C70.3868 12.0943 71.1451 12.8398 71.6979 13.8253C72.5982 12.8676 73.6988 12.1297 74.9922 11.6066C76.2856 11.086 77.5739 10.8232 78.8545 10.8232C81.53 10.8232 83.4422 11.5055 84.591 12.8676C85.7398 14.2296 86.3155 16.2007 86.3155 18.7807V32.3456H80.0312V19.693C80.0312 18.3613 79.77 17.4035 79.2451 16.8249C78.7201 16.2462 77.8782 15.9556 76.7142 15.9556C75.086 15.9556 73.7749 16.5924 72.7859 17.8685C72.8442 18.7959 72.8746 19.549 72.8746 20.1302V32.3482H66.5473V19.4782C66.5473 18.2021 66.3216 17.2974 65.8702 16.7617C65.4188 16.226 64.6402 15.9581 63.5345 15.9581C61.8177 15.9581 60.291 16.9285 58.952 18.8717V32.3507H52.5815V11.4777H52.5866Z" fill="#F2F2F2"/>
<path d="M89.3892 31.0643C87.7737 29.7755 86.9673 28.0142 86.9673 25.7829C86.9673 23.5515 87.7382 21.6613 89.2801 20.3701C90.822 19.0813 93.003 18.4344 95.8255 18.4344C97.0758 18.4344 98.2703 18.5658 99.4039 18.8261C100.537 19.0863 101.542 19.4502 102.414 19.9127V19.3896C102.414 18.0856 101.947 17.1279 101.017 16.5189C100.086 15.9099 98.6608 15.6067 96.741 15.6067C94.1822 15.6067 91.8263 16.0843 89.6732 17.042V12.2609C90.6039 11.8566 91.8111 11.5155 93.2946 11.24C94.7782 10.9646 96.2617 10.8281 97.7453 10.8281C101.526 10.8281 104.349 11.6039 106.21 13.153C108.072 14.7045 109.003 16.8702 109.003 19.6524V32.348H102.807V30.4351C101.032 32.1458 98.6481 33 95.6506 33C93.0892 33 91.0046 32.3556 89.3892 31.0643ZM100.362 28.042C101.235 27.6352 101.92 27.0716 102.414 26.3464V24.2591C100.931 23.2736 99.3024 22.7808 97.5272 22.7808C96.3049 22.7808 95.3665 23.036 94.7122 23.5414C94.058 24.0494 93.7308 24.7948 93.7308 25.7803C93.7308 26.7077 94.0503 27.4178 94.6894 27.9106C95.3285 28.4034 96.2465 28.6485 97.4384 28.6485C98.5137 28.6485 99.4901 28.4463 100.362 28.0395" fill="#F2F2F2"/>
<path d="M26.6839 11.5308L26.7016 15.2506C26.7016 16.6834 27.3407 18.0328 28.421 18.9804C29.2503 19.7082 29.7727 20.7721 29.7727 21.9572C29.7727 24.2441 27.8327 26.0787 25.5021 25.9145C23.5215 25.7755 21.9289 24.1633 21.8148 22.1872C21.7412 20.911 22.2763 19.7587 23.1538 18.9855C24.2341 18.0328 24.8782 16.6859 24.8782 15.2506L24.896 11.5283C19.5019 11.968 15.2617 16.4661 15.2617 21.9547C15.2617 27.7339 19.9635 32.419 25.7633 32.419C31.5632 32.419 36.2649 27.7339 36.2649 21.9547C36.2649 16.4838 32.0526 11.9983 26.6839 11.5334" fill="#F2F2F2"/>
</g>
<defs>
<clipPath id="clip0_67_526">
<rect width="109" height="33" fill="white"/>
</clipPath>
</defs>
</svg>
